<svg xmlns="http://www.w3.org/2000/svg" xmlns:xlink="http://www.w3.org/1999/xlink" viewBox="0,0,256,256" width="100px" height="100px"><g transform="translate(-37.12,-37.12) scale(1.29,1.29)"><g fill="none" fill-rule="none" stroke="none" stroke-width="1" stroke-linecap="butt" stroke-linejoin="miter" stroke-miterlimit="10" stroke-dasharray="" stroke-dashoffset="0" font-family="none" font-weight="none" font-size="none" text-anchor="none" style="mix-blend-mode: normal"><g transform="scale(5.33333,5.33333)"><path d="M42,15c0,-4.967 -4.033,-9 -9,-9h-18c-4.967,0 -9,4.033 -9,9v18c0,4.967 4.033,9 9,9h18c4.967,0 9,-4.033 9,-9z" fill="#3cd0d9" fill-rule="evenodd"></path><path d="M35.982,28c-0.936,0 -2.048,0.233 -2.867,0.817c-0.234,0.175 -0.234,0.408 0.059,0.408c0.936,-0.117 3.043,-0.408 3.452,0.117c0.351,0.467 -0.41,2.451 -0.761,3.384c-0.117,0.292 0.117,0.35 0.351,0.175c1.58,-1.342 1.989,-4.085 1.697,-4.435c-0.176,-0.291 -0.995,-0.466 -1.931,-0.466z" fill="#ffffff" fill-rule="nonzero"></path><path d="M10.15,28.8c1.81,1.133 3.64,2.215 5.561,3.032c1.914,0.815 3.922,1.398 5.94,1.406c2.055,0.055 4.142,-0.227 6.167,-0.688c2.032,-0.468 4.012,-1.173 5.957,-1.998c0.254,-0.109 0.549,0.01 0.657,0.264c0.1,0.235 0.006,0.505 -0.21,0.631c-1.887,1.089 -3.928,1.933 -6.054,2.505c-2.132,0.572 -4.334,0.822 -6.563,0.786c-2.276,-0.119 -4.455,-0.812 -6.405,-1.821c-1.955,-1.014 -3.73,-2.29 -5.351,-3.717c-0.104,-0.092 -0.114,-0.25 -0.023,-0.354c0.084,-0.093 0.222,-0.11 0.324,-0.046z" fill="#ffffff" fill-rule="nonzero"></path><path d="M22.5,26h-0.404c-1.156,0 -2.096,-0.94 -2.096,-2.096v-3.904h1v3.904c0,0.604 0.492,1.096 1.096,1.096h0.404c0.603,0 1.5,-0.897 1.5,-1.5v-1h1v1c0,1.168 -1.332,2.5 -2.5,2.5z" fill="#ffffff" fill-rule="nonzero"></path><rect x="11" y="20" width="1" height="6" fill="#ffffff" fill-rule="evenodd"></rect><path d="M11.391,22.21c-0.021,-0.487 0.147,-0.891 0.372,-1.257c0.117,-0.183 0.246,-0.358 0.428,-0.523c0.202,-0.171 0.434,-0.283 0.672,-0.359c0.984,-0.292 2.011,0.305 2.438,1.196c0.223,0.451 0.202,0.994 0.199,1.324v3.409h-1v-3.409c0.002,-0.421 0.008,-0.664 -0.108,-0.906c-0.209,-0.498 -0.826,-0.719 -1.335,-0.704c-0.446,-0.019 -1.043,0.69 -1.167,1.229z" fill="#ffffff" fill-rule="nonzero"></path><path d="M14.75,22.21c-0.021,-0.487 0.147,-0.891 0.372,-1.257c0.117,-0.183 0.246,-0.358 0.428,-0.523c0.202,-0.171 0.434,-0.283 0.672,-0.359c0.984,-0.292 2.011,0.305 2.438,1.196c0.223,0.451 0.202,0.994 0.199,1.324v3.409h-1v-3.409c0.002,-0.421 0.008,-0.664 -0.108,-0.906c-0.209,-0.498 -0.826,-0.719 -1.335,-0.704c-0.446,-0.019 -1.043,0.69 -1.167,1.229z" fill="#ffffff" fill-rule="nonzero"></path><rect x="24" y="20" width="1" height="6" fill="#ffffff" fill-rule="evenodd"></rect><rect x="31" y="20" width="1" height="6" fill="#ffffff" fill-rule="evenodd"></rect><circle cx="31.5" cy="18" r="1" fill="#ffffff" fill-rule="evenodd"></circle><path d="M34,22.62v0.76c0,0.89 0.73,1.62 1.62,1.62c0.43,0 0.84,-0.17 1.15,-0.47l0.23,-0.23v1.3c-0.41,0.26 -0.88,0.4 -1.38,0.4c-1.44,0 -2.62,-1.18 -2.62,-2.62v-0.76c0,-1.44 1.18,-2.62 2.62,-2.62c0.5,0 0.97,0.14 1.38,0.4v1.3l-0.23,-0.23c-0.31,-0.3 -0.72,-0.47 -1.15,-0.47c-0.89,0 -1.62,0.73 -1.62,1.62z" fill="#ffffff" fill-rule="nonzero"></path><path d="M27.245,20.955c-0.1,0.07 -0.245,0.275 -0.245,0.545c0,0.58 0.32,0.75 1.16,1.03c0.78,0.25 1.84,0.61 1.84,1.97c0,0.52 -0.2,0.95 -0.59,1.25c-0.49,0.38 -1.23,0.5 -1.94,0.5c-0.54,0 -1.08,-0.07 -1.47,-0.14v-1.02c0.94,0.19 2.28,0.28 2.79,-0.13c0.1,-0.07 0.21,-0.19 0.21,-0.46c0,-0.58 -0.32,-0.75 -1.16,-1.03c-0.78,-0.25 -1.84,-0.61 -1.84,-1.97c0,-0.52 0.2,-0.95 0.59,-1.25c0.87,-0.68 2.307,-0.499 3.193,-0.164v1.02c-0.926,-0.534 -2.028,-0.561 -2.538,-0.151z" fill="#ffffff" fill-rule="nonzero"></path></g></g></g></svg>